<svg width="20" height="19" viewBox="0 0 20 19" fill="none" xmlns="http://www.w3.org/2000/svg">
<path d="M18.5965 1.1088C17.9679 0.500518 16.9484 0.500518 16.3193 1.1088L9.71556 7.49991L3.11182 1.1088C2.4833 0.500518 1.46376 0.500518 0.834669 1.1088C0.206152 1.71708 0.206152 2.70379 0.834669 3.31263L7.43841 9.70318L0.835244 16.0937C0.206727 16.702 0.206727 17.6887 0.835244 18.2976C1.46376 18.9064 2.4833 18.9058 3.1124 18.2976L9.71556 11.9065L16.3193 18.2976C16.9478 18.9058 17.9674 18.9058 18.5965 18.2976C19.225 17.6893 19.225 16.7026 18.5965 16.0937L11.9927 9.70263L18.5965 3.31152C19.225 2.70324 19.225 1.71652 18.5965 1.10768V1.1088Z" fill="white"/>
</svg>
